<?xml version="1.0" encoding="UTF-8"?>
<svg xmlns="http://www.w3.org/2000/svg" xmlns:xlink="http://www.w3.org/1999/xlink" version="1.1" id="Ebene_1" x="0px" y="0px" viewBox="0 0 875.9 238.1" style="enable-background:new 0 0 875.9 238.1;" xml:space="preserve">
<style type="text/css">
	.st0{fill:#FFFFFF;}
	.st1{font-family:'AeonikPro-Regular';}
	.st2{font-size:13.1586px;}
</style>
<g>
	<polygon class="st0" points="72.4,93.1 72.4,164.5 85.4,164.5 85.5,124.6 134.9,124.6 134.9,113.5 85.5,113.5 85.4,84.8    141.4,84.8 141.4,73.6 91.9,73.6  "></polygon>
	<polygon class="st0" points="341,73.6 291.5,73.6 272.1,93.1 272.1,164.5 285,164.5 285.1,124.6 334.5,124.6 334.5,113.5    285.1,113.5 285,84.8 341,84.8  "></polygon>
	<path class="st0" d="M232.5,154.7l-18.6-81H199l-18.6,81l-18.6-81H148l23,90.8c5.3,0,12.8,0,18.1,0c2.4-11,14-56.1,17.4-74   c2,10,17.1,72.9,17.4,74c5.3,0,12.8,0,18.1,0l23-90.8h-13.8L232.5,154.7z"></path>
</g>
<g>
	<path class="st0" d="M391.4,115.7c-9.3,0-15.8-7.1-15.8-16.9s6.5-16.9,15.8-16.9s15.8,7.1,15.8,16.9   C407.2,108.6,400.7,115.7,391.4,115.7z M391.4,111.9c6.9,0,11.6-5.5,11.6-13.1s-4.7-13.1-11.6-13.1s-11.6,5.5-11.6,13.1   S384.4,111.9,391.4,111.9z M387,73.6c1.5,0,2.5,1,2.5,2.5c0,1.4-1,2.4-2.5,2.4c-1.4,0-2.5-1-2.5-2.4   C384.6,74.6,385.6,73.6,387,73.6z M395.7,73.6c1.4,0,2.5,1,2.5,2.5c0,1.4-1,2.4-2.5,2.4c-1.4,0-2.5-1-2.5-2.4   C393.2,74.6,394.3,73.6,395.7,73.6z"></path>
	<path class="st0" d="M415,107.5c0.1,2.8,2.7,4.9,6.7,4.9c3.4,0,5.8-1.5,5.8-3.7c0-3-2.7-3.3-6.3-3.7c-5.4-0.7-9.7-1.8-9.7-6.8   c0-4.4,4-7.3,9.5-7.3s9.5,2.6,9.9,7.6h-4c-0.3-2.5-2.6-4.3-5.9-4.3c-3.4,0-5.6,1.4-5.6,3.7c0,2.7,2.6,3,6.1,3.4   c5.5,0.7,9.9,1.7,9.9,7.1c0,4.5-4.3,7.3-9.7,7.3c-6.3,0-10.6-2.9-10.7-8.2H415z"></path>
	<path class="st0" d="M437.7,94.8h-4.4v-3.6h4.4v-6.8h3.9v6.8h6.3v3.6h-6.3v14.3c0,2,0.7,2.8,2.8,2.8h3.8v3.6H444   c-4.6,0-6.3-2-6.3-6.3V94.8z"></path>
	<path class="st0" d="M450.1,103.4c0-7.3,4.6-12.4,11.5-12.4s11.3,4.3,11.5,11.5c0,0.5,0,1.1-0.1,1.7h-18.8v0.3   c0.1,4.6,3,7.8,7.6,7.8c3.4,0,6.1-1.8,6.9-4.9h3.9c-0.9,4.8-4.9,8.4-10.5,8.4C454.8,115.7,450.1,110.8,450.1,103.4z M468.9,100.9   c-0.4-4.2-3.2-6.5-7.3-6.5c-3.6,0-6.8,2.6-7.2,6.5H468.9z"></path>
	<path class="st0" d="M490,91.3v3.8h-2c-5.1,0-6.4,4.2-6.4,8.1v12.3h-3.9V91.3h3.4l0.5,3.7c1.1-1.8,3-3.7,7.3-3.7H490z"></path>
	<path class="st0" d="M505.6,91.3v3.8h-1.9c-5.1,0-6.4,4.2-6.4,8.1v12.3h-3.9V91.3h3.4l0.5,3.7c1.1-1.8,3-3.7,7.3-3.7H505.6z"></path>
	<path class="st0" d="M507.6,103.4c0-7.3,4.6-12.4,11.5-12.4s11.3,4.3,11.5,11.5c0,0.5,0,1.1-0.1,1.7h-18.8v0.3   c0.1,4.6,3,7.8,7.6,7.8c3.4,0,6.1-1.8,6.9-4.9h3.9c-0.9,4.8-4.9,8.4-10.5,8.4C512.3,115.7,507.6,110.8,507.6,103.4z M526.4,100.9   c-0.4-4.2-3.2-6.5-7.3-6.5c-3.6,0-6.8,2.6-7.2,6.5H526.4z"></path>
	<path class="st0" d="M534.6,84.7c0-1.5,1.1-2.5,2.5-2.5s2.5,1,2.5,2.5s-1.1,2.5-2.5,2.5C535.7,87.2,534.6,86.2,534.6,84.7z    M535.1,91.3h3.9v24.2h-3.9V91.3z"></path>
	<path class="st0" d="M543.4,103.4c0-7.4,4.8-12.4,11.8-12.4c5.9,0,9.7,3.3,10.7,8.6h-4.1c-0.7-3.2-3.1-5.2-6.6-5.2   c-4.6,0-7.8,3.7-7.8,9s3.1,8.9,7.8,8.9c3.5,0,5.8-2,6.6-5.1h4.1c-0.9,5.2-4.9,8.5-10.8,8.5C548.1,115.7,543.4,110.9,543.4,103.4z"></path>
	<path class="st0" d="M592.1,102v13.5h-3.9v-13.2c0-5-2.4-7.7-6.6-7.7c-4.5,0-7.3,3.4-7.3,8.8v12.1h-3.9V82.3h3.9v13   c1.4-2.3,3.9-4.3,8-4.3C587.7,91,592.1,94,592.1,102z"></path>
	<path class="st0" d="M596.9,84.7c0-1.5,1.1-2.5,2.5-2.5s2.5,1,2.5,2.5s-1.1,2.5-2.5,2.5S596.9,86.2,596.9,84.7z M597.4,91.3h3.9   v24.2h-3.9V91.3z"></path>
	<path class="st0" d="M609.7,107.5c0.1,2.8,2.7,4.9,6.7,4.9c3.4,0,5.8-1.5,5.8-3.7c0-3-2.7-3.3-6.3-3.7c-5.4-0.7-9.7-1.8-9.7-6.8   c0-4.4,4-7.3,9.5-7.3s9.5,2.6,9.9,7.6h-4c-0.3-2.5-2.6-4.3-5.9-4.3c-3.4,0-5.6,1.4-5.6,3.7c0,2.7,2.6,3,6.1,3.4   c5.5,0.7,9.9,1.7,9.9,7.1c0,4.5-4.3,7.3-9.7,7.3c-6.3,0-10.6-2.9-10.7-8.2H609.7z"></path>
	<path class="st0" d="M629.5,103.4c0-7.4,4.8-12.4,11.8-12.4c5.9,0,9.7,3.3,10.7,8.6h-4.1c-0.7-3.2-3.1-5.2-6.6-5.2   c-4.6,0-7.8,3.7-7.8,9s3.1,8.9,7.8,8.9c3.5,0,5.8-2,6.6-5.1h4.1c-0.9,5.2-4.9,8.5-10.8,8.5C634.1,115.7,629.5,110.9,629.5,103.4z"></path>
	<path class="st0" d="M678.1,102v13.5h-3.9v-13.2c0-5-2.4-7.7-6.6-7.7c-4.5,0-7.3,3.4-7.3,8.8v12.1h-3.9V82.3h3.9v13   c1.4-2.3,3.9-4.3,8-4.3C673.7,91,678.1,94,678.1,102z"></path>
	<path class="st0" d="M682.4,103.4c0-7.3,4.6-12.4,11.5-12.4s11.3,4.3,11.5,11.5c0,0.5,0,1.1-0.1,1.7h-18.8v0.3   c0.1,4.6,3,7.8,7.6,7.8c3.4,0,6.1-1.8,6.9-4.9h3.9c-0.9,4.8-4.9,8.4-10.5,8.4C687.2,115.7,682.4,110.8,682.4,103.4z M701.2,100.9   c-0.4-4.2-3.2-6.5-7.3-6.5c-3.6,0-6.8,2.6-7.2,6.5H701.2z"></path>
	<path class="st0" d="M722.3,91.3v3.8h-1.9c-5.1,0-6.4,4.2-6.4,8.1v12.3h-4V91.3h3.4l0.5,3.7c1.1-1.8,3-3.7,7.3-3.7H722.3z"></path>
	<path class="st0" d="M374.3,131.3h4.3l7.8,27.9l8.2-27.9h4.2l7.9,27.9l7.8-27.9h4.3l-9.7,33.2H404l-7.6-26.3l-7.5,26.3H384   L374.3,131.3z"></path>
	<path class="st0" d="M421.5,133.7c0-1.5,1.1-2.5,2.5-2.5s2.5,1,2.5,2.5s-1.1,2.5-2.5,2.5S421.5,135.2,421.5,133.7z M422.1,140.3   h3.9v24.2h-3.9V140.3z"></path>
	<path class="st0" d="M434.3,156.5c0.1,2.8,2.7,4.9,6.7,4.9c3.4,0,5.8-1.5,5.8-3.7c0-3-2.7-3.3-6.3-3.7c-5.4-0.7-9.7-1.8-9.7-6.8   c0-4.4,4-7.3,9.5-7.3s9.5,2.6,9.9,7.6h-4c-0.3-2.5-2.6-4.3-5.9-4.3c-3.4,0-5.6,1.4-5.6,3.7c0,2.7,2.6,3,6.1,3.4   c5.5,0.7,9.9,1.7,9.9,7.1c0,4.5-4.3,7.3-9.7,7.3c-6.3,0-10.6-2.9-10.7-8.2H434.3z"></path>
	<path class="st0" d="M457.9,156.5c0.1,2.8,2.7,4.9,6.7,4.9c3.4,0,5.8-1.5,5.8-3.7c0-3-2.7-3.3-6.3-3.7c-5.4-0.7-9.7-1.8-9.7-6.8   c0-4.4,4-7.3,9.5-7.3s9.5,2.6,9.9,7.6h-4c-0.3-2.5-2.6-4.3-5.9-4.3c-3.4,0-5.6,1.4-5.6,3.7c0,2.7,2.6,3,6.1,3.4   c5.5,0.7,9.9,1.7,9.9,7.1c0,4.5-4.3,7.3-9.7,7.3c-6.3,0-10.6-2.9-10.7-8.2H457.9z"></path>
	<path class="st0" d="M477.7,152.4c0-7.3,4.6-12.4,11.5-12.4c6.8,0,11.3,4.3,11.5,11.5c0,0.5,0,1.1-0.1,1.7h-18.8v0.3   c0.1,4.6,3,7.8,7.6,7.8c3.4,0,6.1-1.8,6.9-4.9h3.9c-0.9,4.8-4.9,8.4-10.5,8.4C482.5,164.7,477.7,159.8,477.7,152.4z M496.5,149.9   c-0.4-4.2-3.2-6.5-7.3-6.5c-3.6,0-6.8,2.6-7.2,6.5H496.5z"></path>
	<path class="st0" d="M526.7,151v13.5h-3.9v-13.2c0-5-2.3-7.7-6.5-7.7c-4.6,0-7.3,3.4-7.3,8.8v12.1h-3.9v-24.2h3.4l0.5,3.3   c1.4-1.8,3.9-3.6,8-3.6C522.4,140,526.7,143,526.7,151z"></path>
	<path class="st0" d="M534.7,156.5c0.1,2.8,2.7,4.9,6.7,4.9c3.4,0,5.8-1.5,5.8-3.7c0-3-2.7-3.3-6.3-3.7c-5.4-0.7-9.7-1.8-9.7-6.8   c0-4.4,4-7.3,9.5-7.3s9.5,2.6,9.9,7.6h-4c-0.3-2.5-2.6-4.3-5.9-4.3c-3.4,0-5.6,1.4-5.6,3.7c0,2.7,2.6,3,6.1,3.4   c5.5,0.7,9.9,1.7,9.9,7.1c0,4.5-4.3,7.3-9.7,7.3c-6.3,0-10.6-2.9-10.7-8.2H534.7z"></path>
	<path class="st0" d="M554.5,152.4c0-7.4,4.8-12.4,11.8-12.4c5.9,0,9.7,3.3,10.7,8.6h-4.1c-0.7-3.2-3.1-5.2-6.6-5.2   c-4.6,0-7.8,3.7-7.8,9s3.1,8.9,7.8,8.9c3.5,0,5.8-2,6.6-5.1h4.1c-0.9,5.2-4.9,8.5-10.8,8.5C559.2,164.7,554.5,160,554.5,152.4z"></path>
	<path class="st0" d="M602.9,151v13.5H599v-13.2c0-5-2.4-7.7-6.6-7.7c-4.5,0-7.3,3.4-7.3,8.8v12.1h-3.9v-33.2h3.9v13   c1.4-2.3,3.9-4.3,8-4.3C598.5,140,602.9,143,602.9,151z"></path>
	<path class="st0" d="M630.5,160.9v3.6h-2.1c-3.2,0-4.3-1.4-4.4-3.7c-1.5,2.2-3.9,4-8.1,4c-5.3,0-8.9-2.7-8.9-7.1   c0-4.8,3.4-7.5,9.7-7.5h7.1v-1.7c0-3.1-2.2-5-6-5c-3.4,0-5.7,1.6-6.2,4.1h-3.9c0.6-4.7,4.4-7.5,10.2-7.5c6.2,0,9.7,3.1,9.7,8.7   v10.6c0,1.3,0.5,1.6,1.6,1.6h1.3V160.9z M623.8,153.4h-7.5c-3.5,0-5.4,1.3-5.4,4c0,2.4,2,4,5.3,4c4.8,0,7.6-2.8,7.6-6.8   L623.8,153.4L623.8,153.4z"></path>
	<path class="st0" d="M659.4,160.9v3.6h-4.5c-4.6,0-6.3-2-6.3-6.3v-14.3h-9.4v20.6h-3.9v-20.6h-4.4v-3.6h4.4v-2.7   c0-4.3,1.8-6.3,6.3-6.3h3.7v3.6h-3.5c-1.9,0-2.7,0.8-2.7,2.7v2.8h9.4v-6.8h3.9v6.8h6.1v3.6h-6.1v14.3c0,2,0.7,2.8,2.7,2.8h4.3   V160.9z"></path>
	<path class="st0" d="M665.7,156.5c0.1,2.8,2.7,4.9,6.7,4.9c3.4,0,5.8-1.5,5.8-3.7c0-3-2.7-3.3-6.3-3.7c-5.4-0.7-9.7-1.8-9.7-6.8   c0-4.4,4-7.3,9.5-7.3s9.5,2.6,9.9,7.6h-4c-0.3-2.5-2.6-4.3-5.9-4.3c-3.4,0-5.6,1.4-5.6,3.7c0,2.7,2.6,3,6.1,3.4   c5.5,0.7,9.9,1.7,9.9,7.1c0,4.5-4.3,7.3-9.7,7.3c-6.3,0-10.6-2.9-10.7-8.2H665.7z"></path>
	<path class="st0" d="M683.8,140.3h4.4v-2.7c0-4.3,1.8-6.3,6.3-6.3h4.4v3.6h-4.2c-1.9,0-2.7,0.8-2.7,2.7v2.8h6.8v3.6H692v20.6h-3.9   V144h-4.4v-3.7H683.8z"></path>
	<path class="st0" d="M700.9,152.4c0-7.3,4.9-12.4,12-12.4s12,5,12,12.4c0,7.3-4.9,12.4-12,12.4   C705.8,164.7,700.9,159.7,700.9,152.4z M720.9,152.4c0-5.2-3.2-8.9-8-8.9s-8,3.7-8,8.9s3.2,8.9,8,8.9S720.9,157.5,720.9,152.4z"></path>
	<path class="st0" d="M750.9,151v13.5H747v-13.2c0-5-2.3-7.7-6.5-7.7c-4.6,0-7.3,3.4-7.3,8.8v12.1h-3.9v-24.2h3.4l0.5,3.3   c1.4-1.8,3.9-3.6,8-3.6C746.6,140,750.9,143,750.9,151z"></path>
	<path class="st0" d="M775,131.3h3.9v33.2h-3.4l-0.5-3.9c-1.6,2.2-4.2,4.2-8.3,4.2c-6.7,0-11.6-4.5-11.6-12.4   c0-7.4,4.9-12.4,11.6-12.4c4.1,0,6.8,1.7,8.3,4V131.3z M775,152.5c0-5.3-3.2-9-8-9s-8,3.7-8,8.9c0,5.3,3.2,8.9,8,8.9   C771.8,161.3,775,157.6,775,152.5z"></path>
	<path class="st0" d="M787.1,156.5c0.1,2.8,2.7,4.9,6.7,4.9c3.4,0,5.8-1.5,5.8-3.7c0-3-2.7-3.3-6.3-3.7c-5.4-0.7-9.7-1.8-9.7-6.8   c0-4.4,4-7.3,9.5-7.3s9.5,2.6,9.9,7.6h-4c-0.3-2.5-2.6-4.3-5.9-4.3c-3.4,0-5.6,1.4-5.6,3.7c0,2.7,2.6,3,6.1,3.4   c5.5,0.7,9.9,1.7,9.9,7.1c0,4.5-4.3,7.3-9.7,7.3c-6.3,0-10.6-2.9-10.7-8.2H787.1z"></path>
</g>
<text transform="matrix(1 0 0 1 482.2055 84.799)" class="st0 st1 st2"> </text>
</svg>
