<?xml version="1.0" encoding="utf-8"?>
<!-- Generator: Adobe Illustrator 24.3.0, SVG Export Plug-In . SVG Version: 6.00 Build 0)  -->
<svg version="1.1" id="Ebene_1" xmlns="http://www.w3.org/2000/svg" xmlns:xlink="http://www.w3.org/1999/xlink" x="0px" y="0px"
	 viewBox="0 0 1000 1000" style="enable-background:new 0 0 1000 1000;" xml:space="preserve">
<style type="text/css">
	.st0{fill:#E84E0F;}
</style>
<path d="M638.2,389.7h-32.6v511h25.4l1.5-96.4C659.9,863.7,721.5,905,792.5,905c102.9,0,183.3-82.6,183.3-185.5
	c0-102.9-80.4-186.2-183.3-186.2c-68.8,0-127.5,40.6-154.4,97.8V389.7L638.2,389.7z M790.3,564.4c84.1,0,152.9,67.4,152.9,155.1
	c0,87.7-68.8,154.4-152.9,154.4c-84.1,0-152.9-66.7-152.9-154.4C637.4,631.8,706.3,564.4,790.3,564.4L790.3,564.4z"/>
<path d="M529.1,900.7v-19c-42.5-3.7-48.3-8.1-48.3-56.4V697.2c0-87.8-41.7-125.2-101-125.2c-39.5,0-78.3,27.1-104.7,53.4v-246
	c-28.5,8.8-72.5,20.5-107.6,25.6v17.6c48.3,4.4,49.8,7.3,49.8,53.4v349.2c0,48.3-5.9,52.7-49.8,56.4l-0.7,19h155.9v-19
	c-43.9-4.4-47.6-9.5-47.6-56.4V651.1c20.5-23.4,48.3-37.3,76.1-37.3c49,0,71.7,30,71.7,90v121.5c0,47.6-5.9,52-48.3,56.4v19H529.1
	L529.1,900.7z"/>
<polygon class="st0" points="88.4,900.7 88.4,576.5 32.4,576.5 32.4,900.7 88.4,900.7 "/>
<path class="st0" d="M60,468c22.1,0,35.7-16.2,35.7-35c0-20.1-14.3-35.7-35-35.7c-21.4,0-35.7,15.6-35.7,35.7
	c0,18.8,13.6,35,34.4,35H60L60,468z"/>
</svg>
